<svg width="22" height="22" viewBox="0 0 22 22" fill="none" xmlns="http://www.w3.org/2000/svg">
<path d="M7.91412 2.04286C6.64205 2.25742 5.58815 2.79754 4.69696 3.6891C3.82796 4.55847 3.26958 5.6387 3.0662 6.83731C2.99594 7.24795 2.99224 7.42182 3.00703 10.6477L3.01812 14.029L3.12167 14.4507C3.24739 14.9724 3.39161 15.3608 3.60979 15.801C4.47879 17.525 6.15763 18.7236 8.06204 18.9677C8.27651 18.9973 9.43025 19.0047 11.7045 18.9973L15.0325 18.9825L15.4541 18.8789C15.9681 18.7532 16.3564 18.6126 16.8001 18.3943C18.5123 17.5398 19.7215 15.8417 19.9692 13.9365C19.9988 13.7219 20.0062 12.5714 19.9951 10.2926C19.984 7.02968 19.984 6.9557 19.9027 6.61905C19.6253 5.43893 19.1187 4.50668 18.3052 3.6891C17.5027 2.88633 16.5265 2.34991 15.3912 2.09095C15.0362 2.00956 14.9919 2.00956 11.612 2.00216C8.96432 1.99477 8.1286 2.00586 7.91412 2.04286ZM7.15606 7.12957C7.35944 7.33304 7.54064 7.49951 7.56282 7.49951C7.58501 7.49951 7.76621 7.33304 7.96959 7.12957C8.32089 6.77812 8.34677 6.75963 8.49469 6.75963C8.63151 6.75963 8.67589 6.78182 8.80161 6.9076C8.92734 7.03338 8.94953 7.07778 8.94953 7.21466C8.94953 7.36263 8.93104 7.38853 8.57974 7.73997C8.37636 7.94344 8.20995 8.12472 8.20995 8.14691C8.20995 8.16911 8.37636 8.35038 8.57974 8.55385C8.93104 8.90529 8.94953 8.93119 8.94953 9.07917C8.94953 9.21605 8.92734 9.26044 8.80161 9.38622C8.66109 9.5268 8.59083 9.55269 8.41334 9.5342C8.37266 9.5305 8.17297 9.36402 7.96959 9.16055C7.76621 8.96079 7.58131 8.79431 7.56282 8.79431C7.54064 8.79431 7.36683 8.94969 7.17824 9.14206C6.94897 9.37142 6.79366 9.4972 6.7234 9.512C6.57549 9.5416 6.40169 9.46021 6.25377 9.29373C6.14653 9.17165 6.13174 9.13466 6.15023 9.00518C6.16872 8.8757 6.22419 8.80541 6.54221 8.48356L6.91569 8.10992L6.5459 7.73997C6.19461 7.38853 6.17612 7.36263 6.17612 7.21466C6.17612 7.07778 6.1983 7.03338 6.32403 6.9076C6.44976 6.78182 6.49413 6.75963 6.63096 6.75963C6.77887 6.75963 6.80476 6.77812 7.15606 7.12957ZM15.1102 7.13697L15.4948 7.51431L15.8794 7.13697C16.2418 6.77812 16.2676 6.75963 16.4193 6.75963C16.5561 6.75963 16.5967 6.78182 16.7373 6.9224C16.8704 7.05558 16.9 7.10737 16.9 7.22205C16.9 7.35153 16.8667 7.39593 16.5117 7.75847L16.1234 8.15061L16.275 8.29859C16.6041 8.61304 16.863 8.94229 16.863 9.04587C16.863 9.26784 16.5931 9.5342 16.3675 9.5342C16.2824 9.5342 16.1863 9.46021 15.8683 9.14576L15.4726 8.75732L15.1028 9.13096C14.7774 9.45651 14.7108 9.5046 14.5777 9.5231C14.4335 9.5416 14.4113 9.5342 14.256 9.37882C14.1118 9.23084 14.0896 9.19015 14.0896 9.05327C14.0896 8.90159 14.1081 8.8757 14.4668 8.50946L14.844 8.12841L14.4816 7.76217C14.1672 7.44772 14.1192 7.38113 14.1007 7.24795C14.0822 7.10367 14.0896 7.08148 14.2449 6.9261C14.3928 6.78182 14.4335 6.75963 14.5703 6.75963C14.7219 6.75963 14.7478 6.77812 15.1102 7.13697ZM14.219 11.3839C15.0547 11.4246 15.6908 11.4875 15.8276 11.5393L15.92 11.5763L15.8091 11.6281C15.7499 11.654 15.5687 11.6873 15.4134 11.7021L15.125 11.728V12.601C15.125 13.5851 15.0991 13.7552 14.8994 14.0475C14.6517 14.4137 14.3226 14.5765 13.8233 14.5765C13.5349 14.5765 13.4757 14.5654 13.2613 14.4581C12.9728 14.3176 12.7546 14.0808 12.6474 13.8033C12.5808 13.6221 12.5735 13.5148 12.5735 12.7157V11.8278H11.6046C9.23427 11.8278 6.99705 11.6947 7.13017 11.5615C7.18564 11.506 7.88084 11.4246 8.61672 11.3876C9.5301 11.3432 13.3352 11.3395 14.219 11.3839Z" fill="white"/>
</svg>
