<svg width="22" height="22" viewBox="0 0 22 22" fill="none" xmlns="http://www.w3.org/2000/svg">
<path d="M1.30469 1.08203C1.21484 1.12891 1.125 1.21875 1.07812 1.3125C1.00391 1.45703 1 1.53906 1 3.16797V4.86719H11H21V3.16797C21 1.53906 20.9961 1.46094 20.9219 1.3125C20.8711 1.21094 20.7891 1.12891 20.6875 1.07812C20.5352 1 20.4805 1 10.9922 1C1.56641 1.00391 1.44922 1.00391 1.30469 1.08203ZM3.1875 2.41797C3.58984 2.62891 3.60547 3.18359 3.21875 3.42188C2.9375 3.59375 2.57031 3.48047 2.41406 3.17578C2.29688 2.94922 2.32422 2.73438 2.49219 2.53906C2.68359 2.32422 2.92578 2.28125 3.1875 2.41797ZM5.6875 2.41406C5.90234 2.52344 6.00781 2.69531 6.00781 2.9375C6.00781 3.34375 5.54297 3.62891 5.1875 3.44531C4.97656 3.33594 4.89453 3.20312 4.87891 2.96094C4.85938 2.67969 4.95312 2.51172 5.19141 2.40625C5.40234 2.30859 5.47656 2.30859 5.6875 2.41406ZM8.11719 2.36719C8.29297 2.41797 8.48828 2.63281 8.52344 2.81641C8.55859 3.00781 8.44922 3.28125 8.29688 3.39062C8.125 3.51172 7.81641 3.52734 7.64844 3.42578C7.26172 3.17969 7.27734 2.62891 7.67969 2.41797C7.87109 2.31641 7.91406 2.3125 8.11719 2.36719Z" fill="white"/>
<path d="M1 13.2852C1 20.4727 1 20.5352 1.07812 20.6875C1.12891 20.7891 1.21094 20.8711 1.3125 20.9219C1.46484 21 1.51953 21 11 21C20.4805 21 20.5352 21 20.6875 20.9219C20.7891 20.8711 20.8711 20.7891 20.9219 20.6875C21 20.5352 21 20.4727 21 13.2852V6.03906H11H1V13.2852ZM7.52344 9.25C7.72656 9.39062 7.80859 9.52734 7.80859 9.72266C7.80859 9.92188 7.71094 10.1133 7.55078 10.2344C7.44531 10.3125 7.39453 10.3164 6.05469 10.3281L4.67188 10.3398V11.625V12.9141H5.36719C6.15234 12.9141 6.32031 12.957 6.46875 13.1953C6.58594 13.3789 6.5625 13.7305 6.42578 13.875C6.24219 14.0703 6.17578 14.0859 5.39844 14.0859H4.67578L4.66406 15.4805C4.65234 16.8086 4.64844 16.8828 4.57422 16.9844C4.32812 17.3086 3.85156 17.3008 3.60938 16.9688L3.51953 16.8398L3.50781 13.25C3.5 9.72266 3.5 9.65625 3.57812 9.5C3.625 9.39844 3.71094 9.30469 3.80078 9.25C3.94531 9.16797 3.97266 9.16406 5.67188 9.16406H7.39453L7.52344 9.25ZM10.3359 9.23828C10.4102 9.27734 10.5039 9.36328 10.5391 9.42578C10.6406 9.59375 12.8359 16.5195 12.8359 16.6641C12.8359 17.0156 12.4648 17.3008 12.1289 17.2109C11.8164 17.125 11.7695 17.0469 11.4805 16.1523L11.2188 15.3359H10.0586H8.89453L8.63672 16.1445C8.35156 17.0273 8.28906 17.1289 8.00781 17.207C7.64062 17.3047 7.28906 17.0352 7.28906 16.6523C7.28906 16.4844 9.49219 9.53516 9.58984 9.39844C9.74609 9.17578 10.0859 9.10156 10.3359 9.23828ZM16.5625 9.22266C17.2461 9.36719 17.9062 9.88672 18.2227 10.5312C18.4922 11.0781 18.5078 11.25 18.4922 13.375C18.4766 15.1562 18.4766 15.207 18.3867 15.4727C18.3359 15.6211 18.2617 15.8125 18.2148 15.8906L18.1367 16.0352L18.2773 16.1914C18.4805 16.4141 18.5312 16.6133 18.4453 16.8398C18.3359 17.125 18.0664 17.2773 17.7773 17.2109C17.6328 17.1797 17.5781 17.1445 17.3984 16.9844L17.2969 16.8906L17.0781 16.9922C16.7539 17.1484 16.4102 17.2227 16.0195 17.2227C14.8906 17.2266 13.9375 16.4883 13.6289 15.3711C13.5664 15.1484 13.5586 14.918 13.5586 13.1875C13.5586 11.0234 13.5586 11.0195 13.8438 10.4727C14.0508 10.0742 14.5195 9.61719 14.9219 9.42188C15.4375 9.17188 16 9.10156 16.5625 9.22266Z" fill="white"/>
<path d="M9.66016 12.9297C9.45312 13.582 9.28125 14.1289 9.28125 14.1406C9.28125 14.1523 9.63281 14.1641 10.0664 14.1641C10.6797 14.1641 10.8477 14.1523 10.832 14.1133C10.8242 14.0898 10.6523 13.543 10.4492 12.9062C10.2461 12.2656 10.0703 11.7422 10.0586 11.7422C10.0469 11.7422 9.86719 12.2773 9.66016 12.9297Z" fill="white"/>
<path d="M15.6094 10.4023C15.25 10.5273 14.9883 10.7695 14.8164 11.1484C14.7305 11.3281 14.7305 11.3633 14.7305 13.1875V15.043L14.8398 15.2813C15.0625 15.7578 15.5 16.0469 16.0156 16.0508C16.3906 16.0508 16.4219 16.0273 16.2734 15.8555C16.125 15.6875 16.0781 15.5742 16.0781 15.3672C16.0781 15.0586 16.3242 14.8203 16.6445 14.8203C16.8398 14.8203 16.9453 14.8672 17.1211 15.0352C17.2383 15.1445 17.25 15.1484 17.2773 15.0781C17.293 15.0391 17.3086 14.1758 17.3086 13.1641V11.3242L17.1719 11.0586C17.0078 10.7383 16.7695 10.5234 16.457 10.4141C16.1914 10.3203 15.8555 10.3164 15.6094 10.4023Z" fill="white"/>
</svg>
