<svg width="24" height="24" viewBox="0 0 24 24" fill="none" xmlns="http://www.w3.org/2000/svg">
<path d="M4 20C3.45 20 2.97933 19.8043 2.588 19.413C2.19667 19.0217 2.00067 18.5507 2 18V6C2 5.45 2.196 4.97933 2.588 4.588C2.98 4.19667 3.45067 4.00067 4 4H10L12 6H20C20.55 6 21.021 6.196 21.413 6.588C21.805 6.98 22.0007 7.45067 22 8V18C22 18.55 21.8043 19.021 21.413 19.413C21.0217 19.805 20.5507 20.0007 20 20H4ZM7.825 16.375L12.775 11.425L11.35 10L7.825 13.55L6.4 12.125L5 13.55L7.825 16.375ZM14.4 16.375L16 14.775L17.6 16.375L19 14.975L17.4 13.375L19 11.775L17.6 10.375L16 11.975L14.4 10.375L13 11.775L14.6 13.375L13 14.975L14.4 16.375Z" fill="white"/>
</svg>
