<svg width="24" height="24" viewBox="0 0 24 24" fill="none" xmlns="http://www.w3.org/2000/svg">
<path d="M3.2 21C2.595 21 2.07727 20.7799 1.6468 20.3396C1.21633 19.8994 1.00073 19.3695 1 18.75V5.25C1 4.63125 1.2156 4.10175 1.6468 3.6615C2.078 3.22125 2.59573 3.00075 3.2 3H9.8L12 5.25H20.8C21.405 5.25 21.9231 5.4705 22.3543 5.9115C22.7855 6.3525 23.0007 6.882 23 7.5V18.75C23 19.3687 22.7848 19.8986 22.3543 20.3396C21.9238 20.7806 21.4057 21.0007 20.8 21H3.2ZM7.4075 16.9219L12.8525 11.3531L11.285 9.75L7.4075 13.7437L5.84 12.1406L4.3 13.7437L7.4075 16.9219ZM14.64 16.9219L16.4 15.1219L18.16 16.9219L19.7 15.3469L17.94 13.5469L19.7 11.7469L18.16 10.1719L16.4 11.9719L14.64 10.1719L13.1 11.7469L14.86 13.5469L13.1 15.3469L14.64 16.9219Z" fill="white"/>
</svg>
