<svg width="683" height="683" viewBox="0 0 683 683" fill="none" xmlns="http://www.w3.org/2000/svg">
<path d="M212 36.6667C166.133 44.4001 128.133 63.8667 96 96.0001C64.6666 127.333 44.5333 166.267 37.2 209.467C34.6666 224.267 34.5333 230.533 35.0666 346.8L35.4666 468.667L39.2 483.867C43.7333 502.667 48.9333 516.667 56.8 532.533C88.1333 594.667 148.667 637.867 217.333 646.667C225.067 647.733 266.667 648 348.667 647.733L468.667 647.2L483.867 643.467C502.4 638.933 516.4 633.867 532.4 626C594.133 595.2 637.733 534 646.667 465.333C647.733 457.6 648 416.133 647.6 334C647.2 216.4 647.2 213.733 644.267 201.6C634.267 159.067 616 125.467 586.667 96.0001C557.733 67.0667 522.533 47.7334 481.6 38.4001C468.8 35.4667 467.2 35.4667 345.333 35.2001C249.867 34.9334 219.733 35.3334 212 36.6667ZM216 208.667C230.4 213.6 243.467 228.4 247.467 244C250.533 256 249.333 266.133 243.333 278.133C226.8 311.867 181.067 316 158.4 286C151.6 276.933 148.667 268.133 148.667 256C148.667 238.4 156.267 224.267 170.667 214.4C183.733 205.467 200.8 203.333 216 208.667ZM506 210.533C516.4 215.333 525.2 224 530.267 234.4C533.6 241.2 534 243.333 534 256C534 268.667 533.6 270.8 530.267 277.6C525.2 287.867 516 296.8 505.333 301.867C497.6 305.467 495.333 306 484.667 306C474 306 471.733 305.467 464 301.867C453.467 296.8 443.867 287.467 438.933 277.333C435.733 270.8 435.333 268.533 435.333 256C435.333 243.333 435.733 241.2 439.067 234.4C445.6 221.2 458.933 210.267 472.933 206.667C482.133 204.4 496.533 206 506 210.533ZM399.333 373.867C401.733 374.933 404.4 377.067 405.333 378.533C406.533 380.933 406.267 382 402.8 385.467L398.8 389.467L340.8 389.067C283.333 388.667 282.667 388.667 279.867 385.733C276 381.867 277.333 377.067 282.933 374.267C286.8 372.4 294.4 372 341.067 372C384.4 372 395.6 372.4 399.333 373.867Z" fill="white"/>
</svg>
