<svg width="20" height="22" viewBox="0 0 20 22" fill="none" xmlns="http://www.w3.org/2000/svg">
<path fill-rule="evenodd" clip-rule="evenodd" d="M9 0C7.67392 0 6.40215 0.526784 5.46447 1.46447C4.52678 2.40215 4 3.67392 4 5C4 6.32608 4.52678 7.59785 5.46447 8.53553C6.40215 9.47322 7.67392 10 9 10C10.3261 10 11.5979 9.47322 12.5355 8.53553C13.4732 7.59785 14 6.32608 14 5C14 3.67392 13.4732 2.40215 12.5355 1.46447C11.5979 0.526784 10.3261 0 9 0ZM9 11C6.605 11 4.425 11.694 2.822 12.672C2.022 13.16 1.338 13.736 0.844 14.362C0.358 14.976 0 15.713 0 16.5C0 17.345 0.411 18.011 1.003 18.486C1.563 18.936 2.302 19.234 3.087 19.442C4.665 19.859 6.771 20 9 20C9.23067 20 9.459 19.9983 9.685 19.995C9.85248 19.9927 10.0167 19.9484 10.1626 19.8661C10.3085 19.7838 10.4313 19.6662 10.5199 19.524C10.6085 19.3819 10.66 19.2198 10.6696 19.0525C10.6792 18.8853 10.6467 18.7184 10.575 18.567C10.1958 17.7644 9.99942 16.8877 10 16C10 14.748 10.383 13.588 11.037 12.627C11.1342 12.4842 11.1928 12.3186 11.207 12.1465C11.2212 11.9743 11.1905 11.8014 11.118 11.6446C11.0455 11.4878 10.9336 11.3524 10.7932 11.2517C10.6528 11.151 10.4888 11.0884 10.317 11.07C9.88633 11.0233 9.44733 11 9 11ZM19.708 14.068C19.8902 13.8794 19.991 13.6268 19.9887 13.3646C19.9864 13.1024 19.8812 12.8516 19.6958 12.6662C19.5104 12.4808 19.2596 12.3756 18.9974 12.3733C18.7352 12.371 18.4826 12.4718 18.294 12.654L15.112 15.836L13.698 14.422C13.5094 14.2398 13.2568 14.139 12.9946 14.1413C12.7324 14.1436 12.4816 14.2488 12.2962 14.4342C12.1108 14.6196 12.0056 14.8704 12.0033 15.1326C12.001 15.3948 12.1018 15.6474 12.284 15.836L14.334 17.886C14.4362 17.9882 14.5574 18.0693 14.6909 18.1246C14.8244 18.1799 14.9675 18.2084 15.112 18.2084C15.2565 18.2084 15.3996 18.1799 15.5331 18.1246C15.6666 18.0693 15.7878 17.9882 15.89 17.886L19.708 14.068Z" fill="white"/>
</svg>
