<svg width="26" height="29" viewBox="0 0 26 29" fill="none" xmlns="http://www.w3.org/2000/svg">
<g filter="url(#filter0_d_1485_44)">
<path d="M14.2573 19.759C13.43 18.931 13.0163 17.9343 13.0163 16.769C13.0163 15.6037 13.4296 14.607 14.2563 13.779C15.0843 12.9523 16.081 12.539 17.2463 12.539C18.4116 12.539 19.4083 12.9523 20.2363 13.779C21.0637 14.6077 21.4773 15.6047 21.4773 16.77C21.4773 17.9353 21.0637 18.932 20.2363 19.76C19.4083 20.5867 18.4116 21 17.2463 21C16.081 21 15.0853 20.5863 14.2573 19.759ZM19.1003 18.592C19.171 18.5087 19.1886 18.4217 19.1533 18.331C19.118 18.2397 19.0546 18.1857 18.9633 18.169C18.5946 18.1117 18.2513 17.9783 17.9333 17.769C17.6153 17.5597 17.3596 17.2803 17.1663 16.931C16.973 16.5817 16.8597 16.2207 16.8263 15.848C16.795 15.4747 16.848 15.1117 16.9853 14.759C17.0186 14.6683 17.001 14.5837 16.9323 14.505C16.8636 14.4257 16.7836 14.3963 16.6923 14.417C15.743 14.5917 15.0993 15.129 14.7613 16.029C14.4233 16.929 14.5633 17.7667 15.1813 18.542C15.6746 19.16 16.3226 19.4773 17.1253 19.494C17.928 19.5107 18.5863 19.21 19.1003 18.592ZM11.3793 21C11.1593 21 10.9703 20.9227 10.8123 20.768C10.6543 20.6133 10.5546 20.424 10.5133 20.2L10.2503 18.108C9.93098 18.0113 9.58598 17.86 9.21532 17.654C8.84398 17.4473 8.52798 17.226 8.26732 16.99L6.35232 17.814C6.14098 17.9073 5.92632 17.914 5.70832 17.834C5.49032 17.7553 5.32232 17.6203 5.20432 17.429L4.12532 15.57C4.00732 15.3793 3.97265 15.1697 4.02132 14.941C4.06998 14.7123 4.18598 14.5273 4.36932 14.386L6.04132 13.136C6.01132 12.9553 5.98698 12.772 5.96832 12.586C5.94832 12.4013 5.93832 12.212 5.93832 12.018C5.93832 11.824 5.94832 11.6313 5.96832 11.44C5.98832 11.2487 6.01265 11.0563 6.04132 10.863L4.36932 9.61299C4.18598 9.47033 4.07332 9.28499 4.03132 9.05699C3.98932 8.82899 4.02698 8.61299 4.14432 8.40899L5.20432 6.60899C5.32232 6.41766 5.49032 6.28233 5.70832 6.20299C5.92632 6.12366 6.14098 6.13066 6.35232 6.22399L8.24832 7.02799C8.54698 6.77933 8.85965 6.55833 9.18632 6.36499C9.51298 6.17166 9.86132 6.01366 10.2313 5.89099L10.5143 3.79899C10.555 3.57099 10.6616 3.38066 10.8343 3.22799C11.0076 3.07533 11.2086 2.99899 11.4373 2.99899H13.5173C13.746 2.99899 13.9466 3.07533 14.1193 3.22799C14.2926 3.38066 14.3996 3.57099 14.4403 3.79899L14.7043 5.91099C15.0616 6.03233 15.4003 6.18666 15.7203 6.37399C16.0403 6.56133 16.3433 6.77933 16.6293 7.02799L18.6213 6.22399C18.8333 6.13066 19.0483 6.12366 19.2663 6.20299C19.4843 6.28233 19.652 6.41766 19.7693 6.60899L20.8293 8.42799C20.9473 8.61933 20.982 8.82899 20.9333 9.05699C20.8846 9.28499 20.7686 9.47033 20.5853 9.61299L19.6733 10.301C19.5786 10.3757 19.4723 10.4233 19.3543 10.444C19.2363 10.4653 19.1217 10.4553 19.0103 10.414C18.7503 10.3287 18.489 10.2657 18.2263 10.225C17.9636 10.1843 17.6986 10.162 17.4313 10.158C16.938 10.1507 16.4546 10.1963 15.9813 10.295C15.5093 10.3937 15.0523 10.5387 14.6103 10.73C14.3836 10.35 14.077 10.05 13.6903 9.82999C13.305 9.60933 12.8916 9.49899 12.4503 9.49899C11.753 9.49899 11.162 9.74133 10.6773 10.226C10.1926 10.7107 9.95032 11.302 9.95032 12C9.95032 12.4413 10.0573 12.8527 10.2713 13.234C10.486 13.6153 10.785 13.9193 11.1683 14.146C11.0003 14.6333 10.872 15.129 10.7833 15.633C10.6946 16.137 10.6503 16.647 10.6503 17.163C10.6503 17.7477 10.747 18.3117 10.9403 18.855C11.133 19.3977 11.391 19.9157 11.7143 20.409C11.7963 20.5323 11.8006 20.6617 11.7273 20.797C11.654 20.9323 11.538 21 11.3793 21Z" fill="white"/>
</g>
<defs>
<filter id="filter0_d_1485_44" x="-3.52271" y="0" width="32" height="32" filterUnits="userSpaceOnUse" color-interpolation-filters="sRGB">
<feFlood flood-opacity="0" result="BackgroundImageFix"/>
<feColorMatrix in="SourceAlpha" type="matrix" values="0 0 0 0 0 0 0 0 0 0 0 0 0 0 0 0 0 0 127 0" result="hardAlpha"/>
<feOffset dy="4"/>
<feGaussianBlur stdDeviation="2"/>
<feComposite in2="hardAlpha" operator="out"/>
<feColorMatrix type="matrix" values="0 0 0 0 0 0 0 0 0 0 0 0 0 0 0 0 0 0 0.25 0"/>
<feBlend mode="normal" in2="BackgroundImageFix" result="effect1_dropShadow_1485_44"/>
<feBlend mode="normal" in="SourceGraphic" in2="effect1_dropShadow_1485_44" result="shape"/>
</filter>
</defs>
</svg>
