<svg width="20" height="20" viewBox="0 0 20 20" fill="none" xmlns="http://www.w3.org/2000/svg">
<path fill-rule="evenodd" clip-rule="evenodd" d="M1.464 1.464C0 2.93 0 5.286 0 10C0 14.714 0 17.071 1.464 18.535C2.93 20 5.286 20 10 20C14.714 20 17.071 20 18.535 18.535C20 17.072 20 14.714 20 10C20 5.286 20 2.929 18.535 1.464C17.072 0 14.714 0 10 0C5.286 0 2.929 0 1.464 1.464ZM8.747 3.994C8.7486 4.19274 8.67125 4.38399 8.53193 4.52574C8.39262 4.66749 8.20274 4.74815 8.004 4.75C7.148 4.757 6.55 4.785 6.1 4.874C5.672 4.958 5.434 5.086 5.26 5.26C5.086 5.434 4.958 5.672 4.874 6.1C4.786 6.55 4.757 7.148 4.75 8.004C4.74828 8.20291 4.66761 8.39299 4.52573 8.53243C4.38386 8.67186 4.19241 8.74922 3.9935 8.7475C3.79459 8.74578 3.60451 8.6651 3.46507 8.52323C3.32564 8.38136 3.24828 8.18991 3.25 7.991C3.257 7.141 3.284 6.414 3.402 5.812C3.524 5.189 3.753 4.645 4.199 4.199C4.645 3.753 5.189 3.524 5.812 3.402C6.414 3.284 7.14 3.257 7.991 3.25C8.08949 3.24921 8.18718 3.26783 8.27847 3.30479C8.36977 3.34175 8.45289 3.39633 8.52309 3.46542C8.5933 3.53451 8.6492 3.61675 8.68762 3.70744C8.72604 3.79813 8.74621 3.89551 8.747 3.994ZM11.25 3.994C11.2508 3.89542 11.271 3.79797 11.3095 3.70721C11.348 3.61645 11.404 3.53416 11.4743 3.46506C11.5446 3.39596 11.6278 3.3414 11.7192 3.3045C11.8106 3.2676 11.9084 3.24908 12.007 3.25C12.857 3.257 13.583 3.284 14.186 3.402C14.809 3.524 15.352 3.753 15.798 4.199C16.244 4.645 16.474 5.189 16.596 5.812C16.714 6.414 16.74 7.14 16.747 7.991C16.7479 8.08949 16.7293 8.18719 16.6924 8.27851C16.6555 8.36983 16.601 8.45299 16.5319 8.52323C16.4629 8.59348 16.3807 8.64944 16.29 8.68792C16.1994 8.7264 16.102 8.74665 16.0035 8.7475C15.905 8.74835 15.8073 8.7298 15.716 8.6929C15.6247 8.65599 15.5415 8.60147 15.4713 8.53243C15.401 8.46339 15.3451 8.38119 15.3066 8.29052C15.2681 8.19985 15.2479 8.10249 15.247 8.004C15.24 7.148 15.212 6.55 15.124 6.1C15.04 5.672 14.912 5.434 14.738 5.26C14.564 5.086 14.326 4.958 13.898 4.874C13.448 4.786 12.85 4.757 11.994 4.75C11.8955 4.74922 11.7981 4.72904 11.7074 4.69062C11.6167 4.6522 11.5345 4.5963 11.4654 4.52609C11.3963 4.45589 11.3417 4.37277 11.3048 4.28147C11.2678 4.19018 11.2492 4.09249 11.25 3.994ZM4.75 11.994C4.74828 11.7951 4.66761 11.605 4.52573 11.4656C4.38386 11.3261 4.19241 11.2488 3.9935 11.2505C3.79459 11.2522 3.60451 11.3329 3.46507 11.4748C3.32564 11.6166 3.24828 11.8081 3.25 12.007C3.257 12.857 3.284 13.584 3.402 14.186C3.524 14.809 3.753 15.353 4.199 15.799C4.645 16.245 5.189 16.474 5.812 16.596C6.414 16.715 7.14 16.741 7.991 16.748C8.18991 16.7497 8.38136 16.6724 8.52323 16.5329C8.6651 16.3935 8.74578 16.2034 8.7475 16.0045C8.74922 15.8056 8.67186 15.6141 8.53243 15.4723C8.39299 15.3304 8.20291 15.2497 8.004 15.248C7.148 15.241 6.55 15.212 6.1 15.125C5.672 15.041 5.434 14.912 5.26 14.738C5.086 14.564 4.958 14.326 4.874 13.898C4.786 13.448 4.757 12.85 4.75 11.994ZM16.004 11.251C16.2027 11.2528 16.3926 11.3335 16.5319 11.4753C16.6712 11.617 16.7486 11.8083 16.747 12.007C16.74 12.857 16.714 13.584 16.596 14.186C16.474 14.809 16.244 15.353 15.798 15.799C15.352 16.245 14.808 16.474 14.186 16.596C13.583 16.715 12.857 16.741 12.006 16.748C11.9075 16.7488 11.8098 16.7302 11.7185 16.6932C11.6272 16.6562 11.5441 16.6017 11.4739 16.5326C11.4037 16.4635 11.3478 16.3812 11.3094 16.2906C11.271 16.1999 11.2508 16.1025 11.25 16.004C11.2492 15.9055 11.2678 15.8078 11.3048 15.7165C11.3418 15.6252 11.3963 15.5421 11.4654 15.4719C11.5345 15.4017 11.6168 15.3458 11.7074 15.3074C11.7981 15.269 11.8955 15.2488 11.994 15.248C12.85 15.241 13.448 15.212 13.897 15.125C14.326 15.041 14.563 14.912 14.737 14.738C14.912 14.564 15.04 14.326 15.124 13.898C15.212 13.448 15.24 12.85 15.248 11.994C15.2498 11.7953 15.3305 11.6054 15.4723 11.4661C15.614 11.3268 15.8053 11.2494 16.004 11.251Z" fill="white"/>
</svg>
