<svg width="20" height="22" viewBox="0 0 20 22" fill="none" xmlns="http://www.w3.org/2000/svg">
<path d="M9 11C9.44733 11 9.88672 11.0236 10.3174 11.0703C10.489 11.0888 10.6527 11.1514 10.793 11.252C10.9333 11.3526 11.0457 11.4877 11.1182 11.6445C11.1907 11.8013 11.2212 11.9743 11.207 12.1465C11.1928 12.3186 11.1343 12.4842 11.0371 12.627C10.3831 13.588 10 14.748 10 16C9.99942 16.8877 10.196 17.7648 10.5752 18.5674C10.6468 18.7186 10.6795 18.8857 10.6699 19.0527C10.6603 19.2199 10.6081 19.3823 10.5195 19.5244C10.431 19.6664 10.3078 19.784 10.1621 19.8662C10.0163 19.9484 9.85189 19.9928 9.68457 19.9951C9.45871 19.9984 9.23052 20 9 20C6.77101 20 4.66491 19.8594 3.08691 19.4424C2.30197 19.2344 1.56292 18.9363 1.00293 18.4863C0.41093 18.0113 0 17.345 0 16.5C0 15.7131 0.357875 14.9762 0.84375 14.3623C1.33775 13.7363 2.02227 13.1599 2.82227 12.6719C4.42524 11.694 6.60512 11 9 11ZM9 0C10.3261 0 11.5975 0.527162 12.5352 1.46484C13.4728 2.40253 14 3.67392 14 5C14 6.32608 13.4728 7.59747 12.5352 8.53516C11.5975 9.47284 10.3261 10 9 10C7.67392 10 6.40253 9.47284 5.46484 8.53516C4.52716 7.59747 4 6.32608 4 5C4 3.67392 4.52716 2.40253 5.46484 1.46484C6.40253 0.527162 7.67392 0 9 0Z" fill="white"/>
<path d="M19.7335 20.7597C19.5662 20.911 19.3392 20.996 19.1026 20.996C18.8659 20.996 18.639 20.911 18.4716 20.7597L16.5004 18.7228L14.5291 20.7591C14.4465 20.835 14.3481 20.8953 14.2395 20.9367C14.131 20.978 14.0145 20.9996 13.8967 21C13.7789 21.0004 13.6622 20.9798 13.5533 20.9392C13.4443 20.8987 13.3454 20.839 13.2621 20.7637C13.1788 20.6884 13.1128 20.599 13.068 20.5005C13.0231 20.402 13.0003 20.2965 13.0008 20.19C13.0012 20.0835 13.025 19.9782 13.0708 19.88C13.1165 19.7819 13.1833 19.6929 13.2673 19.6183L15.3181 17.5007L13.2665 15.3817C13.1825 15.3071 13.1158 15.2181 13.07 15.12C13.0243 15.0218 13.0005 14.9165 13 14.81C12.9995 14.7035 13.0224 14.598 13.0672 14.4995C13.1121 14.401 13.1781 14.3116 13.2614 14.2363C13.3446 14.161 13.4436 14.1013 13.5525 14.0608C13.6614 14.0202 13.7781 13.9996 13.8959 14C14.0137 14.0004 14.1303 14.022 14.2388 14.0633C14.3474 14.1047 14.4458 14.165 14.5284 14.2409L16.5004 16.2785L18.4716 14.2409C18.5542 14.165 18.6526 14.1047 18.7612 14.0633C18.8697 14.022 18.9863 14.0004 19.1041 14C19.2219 13.9996 19.3386 14.0202 19.4475 14.0608C19.5564 14.1013 19.6554 14.161 19.7386 14.2363C19.8219 14.3116 19.8879 14.401 19.9328 14.4995C19.9776 14.598 20.0005 14.7035 20 14.81C19.9995 14.9165 19.9757 15.0218 19.93 15.12C19.8842 15.2181 19.8175 15.3071 19.7335 15.3817L17.6827 17.5007L19.7335 19.6183C19.8165 19.6932 19.8823 19.7821 19.9272 19.8801C19.9721 19.978 19.9952 20.083 19.9952 20.189C19.9952 20.295 19.9721 20.4 19.9272 20.4979C19.8823 20.5958 19.8165 20.6848 19.7335 20.7597Z" fill="white"/>
</svg>
