<svg xmlns="http://www.w3.org/2000/svg" version="1.1" xmlns:xlink="http://www.w3.org/1999/xlink" width="54" height="47"><svg width="54" height="47" viewBox="0 0 54 47" fill="none" xmlns="http://www.w3.org/2000/svg">
<path d="M23.1634 0.0672568C22.9256 0.134948 22.5971 0.247767 22.4273 0.338023C21.9063 0.608788 21.1816 1.46621 21.0344 2.00775C20.9551 2.26723 20.7965 2.60569 20.6833 2.72979C20.3662 3.09081 20.5134 3.71131 21.0457 4.28669L21.4647 4.72669L21.9743 4.36566C22.7444 3.81285 24.1373 3.7226 24.6016 4.19644C24.8847 4.4672 24.8281 4.9072 24.4997 5.05386C24.1826 5.18924 22.6877 5.04258 21.2835 4.73797C20.8871 4.64771 20.5361 4.5913 20.5134 4.62515C20.4908 4.64771 20.5814 4.80566 20.7286 4.96361C20.9098 5.16668 21.3741 5.4036 22.1668 5.68565C23.6277 6.20462 23.9448 6.64461 22.5405 6.2159L22.2687 6.12564L22.4952 6.56564C22.7557 7.0846 23.3559 7.45691 24.1939 7.63742C24.5563 7.70511 24.7828 7.81793 24.7828 7.90818C24.7828 7.99844 24.6242 8.31433 24.443 8.60766C24.0127 9.28458 23.7069 10.2548 23.5937 11.2928C23.4238 12.9512 23.1407 13.1768 21.7138 12.8158C21.1929 12.6804 20.253 12.5338 19.6301 12.4886L18.509 12.4209L18.1919 11.6312C17.7163 10.4579 17.5238 10.1194 16.9915 9.45381C16.7197 9.12663 16.5159 8.77689 16.5385 8.67535C16.5612 8.57382 16.8783 8.31433 17.252 8.08869C18.0334 7.61485 18.5769 6.90409 18.8487 5.97898C19.381 4.15131 17.8069 2.97799 15.7458 3.66619C15.3495 3.80157 14.4095 4.23028 13.6395 4.62515C12.8694 5.02002 12.0767 5.36975 11.8615 5.39232C11.3066 5.48257 10.7744 5.29078 10.4912 4.91848C10.1628 4.4672 10.0609 4.48977 10.0609 5.0313C10.0609 5.61796 10.2874 6.04667 10.8083 6.4641L11.2387 6.80256L10.1402 7.93075C9.52866 8.55125 8.05648 9.91636 6.86741 10.9656C5.66701 12.0148 4.10423 13.4363 3.37946 14.1245C2.09979 15.3542 1.51091 15.7604 0.616278 16.0199C0.367139 16.0876 0.151973 16.2004 0.129324 16.2681C0.0500527 16.5163 0.684225 17.1029 1.39767 17.4527C2.04317 17.7686 2.21303 17.8024 2.8925 17.7573C4.05893 17.7009 4.7384 17.306 6.3125 15.8168C7.89794 14.3163 10.3554 12.1389 10.763 11.8681C11.1254 11.6312 11.4199 11.744 11.4199 12.1051C11.4199 12.624 11.0235 13.143 8.47549 15.8619C7.69409 16.6968 6.75416 17.7686 6.38045 18.2311C6.00674 18.6937 5.248 19.5624 4.68178 20.1491C4.11555 20.7357 3.33416 21.6044 2.96045 22.067C1.72608 23.5788 1.19383 23.9849 0.423761 23.9849C-0.391603 23.9849 0.0387281 24.8762 1.12588 25.4403C1.80535 25.79 1.90727 25.8126 2.63204 25.7562C3.61727 25.6659 4.39866 25.3049 5.10078 24.5828C5.3839 24.2895 7.0033 22.2136 8.69065 19.9798C12.5183 14.9142 12.4051 15.0496 12.6995 15.0948C13.3903 15.1963 13.1752 15.8394 11.7596 17.8363C11.284 18.5132 9.24555 21.4916 7.22979 24.4362C2.48482 31.3971 2.75661 31.0135 2.34893 31.2505C2.15641 31.3633 1.88462 31.431 1.72608 31.3971C1.37502 31.3407 1.38634 31.4422 1.7374 31.871C2.14509 32.3448 2.99442 32.6043 3.93436 32.5253C6.05204 32.3674 7.17317 31.3181 9.49469 27.3695C9.94767 26.591 10.8876 24.989 11.5897 23.8157C12.2918 22.6311 13.2205 21.0516 13.6621 20.307C14.4661 18.9306 14.9758 18.2311 15.1683 18.2311C15.2249 18.2311 15.2928 18.344 15.3268 18.4906C15.3834 18.6824 15.0097 19.5511 13.9905 21.6157C13.2091 23.1952 11.703 26.2977 10.6271 28.4977C7.28641 35.3458 6.70886 36.3499 5.91615 36.6432C5.47449 36.8012 5.47449 36.9027 5.90482 37.2299C6.13131 37.3878 6.43707 37.4668 6.98065 37.5006C8.12443 37.5683 8.89449 37.2411 9.84575 36.2935C10.5365 35.6053 10.6951 35.3458 11.7936 33.1233C12.8128 31.0474 15.7232 24.7069 17.1387 21.469C17.5577 20.5101 17.7842 20.2393 18.0787 20.3408C18.2938 20.4198 18.2485 20.9275 17.9428 21.7962C17.7956 22.2249 16.6744 25.0905 15.4514 28.1592C13.7074 32.5253 13.1299 33.8566 12.7788 34.2966C12.2126 35.0299 12.3145 35.2104 13.2431 35.1201C14.4095 35.0186 15.2815 34.4996 16.1082 33.4166C16.6858 32.6607 18.0107 29.9079 19.1205 27.1438C20.9211 22.6649 21.3854 21.7285 21.7818 21.7285C21.8497 21.7285 22.0083 21.8413 22.1328 21.9767C22.733 22.6649 22.8803 23.8157 22.5292 25.0116C21.9403 26.9746 19.7547 30.2012 18.3731 31.194C18.0107 31.4535 17.9994 31.4761 18.1693 31.6679C18.2712 31.7807 18.4977 31.8935 18.6789 31.9274C18.8601 31.9612 19.1658 32.0289 19.347 32.0628C19.5622 32.1079 19.6867 32.1981 19.6867 32.3222C19.6867 32.6043 17.6597 36.4627 17.3539 36.7786C17.2067 36.9253 16.765 37.2299 16.38 37.4781C15.576 37.9632 15.3268 37.997 14.0245 37.7601C12.994 37.5683 12.6089 37.6924 12.3032 38.3016C12.2012 38.5047 11.9861 38.8093 11.8389 38.9786C11.3519 39.5088 11.1934 39.8247 11.1934 40.2647C11.1934 40.8288 11.4538 41.3139 11.8728 41.5283C12.4051 41.799 12.5183 41.7539 12.6203 41.156L12.7222 40.6257L13.3677 40.5693C13.8659 40.5242 14.0811 40.4452 14.3303 40.197C14.704 39.8586 14.9531 39.8134 15.1569 40.0616C15.3834 40.3324 15.1456 40.716 14.4322 41.2462C13.7301 41.7539 13.5942 42.0698 13.7867 42.7129C13.8546 42.9385 13.9112 43.277 13.9112 43.4462C13.9112 43.8975 14.5341 44.4729 15.1343 44.5744C15.4061 44.6195 15.6552 44.6195 15.7005 44.5857C15.7345 44.5405 15.7005 44.3488 15.6212 44.1457C15.3155 43.4011 15.3268 43.3108 15.7685 43.1642C16.2441 43.0062 16.4366 42.7016 16.6291 41.7539C16.7877 40.9529 16.9236 40.6821 17.1387 40.6821C17.3539 40.6821 17.4558 41.2688 17.3199 41.7765C17.0934 42.5775 17.1387 42.679 18.1693 43.6831C19.0865 44.5744 19.1658 44.6308 19.6301 44.6308C20.0038 44.6308 20.2077 44.5518 20.4908 44.3262L20.8532 44.0216L20.3775 43.8185C19.8793 43.6041 19.8453 43.5252 20.0491 42.7918C20.219 42.1488 20.1397 41.8893 19.4942 41.0319C18.8148 40.1068 18.7808 39.7232 19.3697 39.1365C19.834 38.674 20.1171 38.6401 21.7931 38.8093L22.6991 38.9109L23.1067 38.5498C23.5597 38.155 23.7183 38.1663 24.0467 38.6514C24.1713 38.8432 24.3071 38.9898 24.3524 38.9898C24.3977 38.9898 24.545 38.7755 24.6809 38.516C24.862 38.155 24.9073 37.9181 24.862 37.4781C24.8054 36.7899 24.545 36.553 23.7862 36.4514C23.4918 36.4063 23.0841 36.3273 22.8803 36.2596C22.3933 36.113 21.963 36.2032 21.4194 36.553C20.4342 37.1847 20.2416 36.8801 20.9891 35.8873C21.2609 35.515 21.7591 34.7704 22.0762 34.2176C22.4046 33.6761 22.7104 33.2361 22.7557 33.2361C22.801 33.2361 23.0841 33.4391 23.3785 33.6873C23.9221 34.1386 24.7148 34.4771 24.862 34.3191C24.9073 34.2853 24.8847 33.9468 24.8054 33.5971C24.6016 32.6268 24.6356 31.6792 24.896 31.1151C25.0093 30.8556 25.1565 30.6412 25.2131 30.6412C25.4962 30.6412 25.6208 31.3294 25.6661 33.2248C25.7454 36.4853 25.2471 39.7345 24.4317 41.2575C23.9448 42.1713 23.1973 42.9724 22.5745 43.277C22.2914 43.4124 22.0309 43.5703 21.9969 43.6267C21.963 43.6944 22.1781 43.9877 22.4839 44.2811C23.0954 44.9016 23.5824 45.0821 24.5903 45.0821C25.1678 45.0821 25.2811 45.1159 25.4962 45.3867C26.1191 46.1539 27.0364 47 27.2289 47C27.6479 47 28.4972 46.3456 28.9275 45.7026L29.3579 45.0595L30.0034 45.1385C30.5583 45.2062 30.7508 45.1723 31.2717 44.9354C31.9172 44.6421 32.7099 43.9426 32.7099 43.6718C32.7099 43.5816 32.4948 43.4124 32.2343 43.2995C30.8754 42.7016 29.9015 40.8739 29.3013 37.8617C28.8709 35.6955 28.9502 31.4084 29.4371 30.6299C29.5164 30.5058 29.5957 30.5397 29.8448 30.7766C30.1279 31.0587 30.1506 31.1715 30.1959 32.1417C30.2299 32.875 30.1959 33.3827 30.0713 33.7889C29.9241 34.2853 29.9241 34.3643 30.06 34.3643C30.3205 34.3643 30.966 34.0596 31.5095 33.6986L32.0191 33.3489L32.993 34.7027C33.933 36.0001 34.284 36.6658 34.1368 36.8124C34.0915 36.8576 33.7971 36.7673 33.4687 36.6319C32.223 36.0791 32.1324 36.0791 31.2038 36.5417C30.7395 36.7673 30.2865 37.0494 30.1959 37.1622C29.7542 37.6473 29.8562 38.3693 30.445 38.9334C30.7961 39.2719 30.9546 39.238 31.0339 38.8206C31.0905 38.5386 31.3736 38.5724 31.8266 38.9109C32.1437 39.1478 32.1664 39.1478 32.6986 38.956C33.7178 38.595 35.2579 38.7981 35.5411 39.3396C35.7336 39.6893 35.6656 39.9714 35.1447 40.9755C34.5558 42.0811 34.5105 42.4872 34.9182 42.9611C35.3032 43.4124 35.2806 43.5477 34.7483 43.9652C34.4992 44.1682 34.2954 44.3713 34.2954 44.4052C34.2954 44.5744 34.9522 44.7549 35.2693 44.6759C36.0507 44.4954 36.4583 44.1795 36.7301 43.5816C36.8773 43.2544 37.1038 42.9272 37.2397 42.8483C37.4775 42.7016 37.4889 42.6339 37.4209 41.957C37.353 41.2914 37.3643 41.2349 37.5455 41.2688C37.6701 41.2914 37.8966 41.6072 38.123 42.0698C38.5194 42.8934 38.8818 43.1642 39.6292 43.1642H39.9803L39.935 43.8975C39.8783 44.7436 39.9916 44.8113 40.6371 44.3713C41.3279 43.9088 41.6563 42.8257 41.2599 42.3067C41.1693 42.1939 41.0901 41.9344 41.0901 41.7426C41.0901 41.3478 40.9089 41.156 39.8783 40.4678C39.482 40.2083 39.1649 39.9488 39.1649 39.8924C39.1649 39.6329 39.7198 39.6555 40.2747 39.9375C40.9089 40.2534 41.3166 40.2985 41.8828 40.0955C42.2112 39.9827 42.2791 39.9939 42.415 40.1857C42.4943 40.2985 42.5509 40.5467 42.5396 40.7273C42.4603 41.5283 43.3663 40.8852 43.6494 39.9375C43.9325 38.9786 43.6721 38.5047 42.8114 38.3693C42.4377 38.3129 42.1546 38.1775 41.8601 37.9068C41.3732 37.4781 41.2373 37.4555 40.4559 37.6924C40.1501 37.7827 39.5273 37.8617 39.0743 37.8617C38.2703 37.8617 38.2476 37.8504 37.738 37.3878C37.285 36.9704 34.5105 32.954 34.0236 32.0176L33.8311 31.634L34.4426 31.713C34.9409 31.7807 35.1447 31.7469 35.5297 31.5551C36.0733 31.273 36.1073 31.1489 35.6883 31.0474C34.6464 30.7766 32.9591 28.9038 31.5548 26.4105C30.9207 25.2936 30.5583 24.3572 30.5583 23.8157C30.5583 22.7552 31.3736 21.3901 31.9059 21.5593C32.3136 21.6834 32.7439 22.4054 33.5593 24.2895C35.1447 27.99 37.6134 33.4279 37.9305 33.913C38.2816 34.4771 38.6213 34.7591 39.3914 35.154C39.9576 35.4473 41.0901 35.515 41.5204 35.2781L41.7695 35.1427L41.3958 34.7817C40.8636 34.2853 40.7277 34.0032 38.5987 28.7233C37.5455 26.151 36.413 23.3531 36.062 22.5183C35.3485 20.7808 35.1787 20.0814 35.4731 19.9685C35.8355 19.8332 36.2092 20.0362 36.447 20.4988C36.5829 20.747 37.3077 22.4054 38.0777 24.188C40.32 29.3777 41.1693 31.2505 42.1432 33.2361C43.0039 34.9848 43.1172 35.154 43.9891 36.0227C44.8158 36.8463 44.997 36.9704 45.6765 37.1735C46.5711 37.4555 47.0807 37.4668 47.8168 37.2524C48.383 37.0832 49.1758 36.553 49.0738 36.4063C49.0512 36.3499 48.87 36.2822 48.6888 36.2483C48.1792 36.1468 47.6017 35.5714 46.9448 34.4884C45.6312 32.3786 41.3845 24.6505 39.1422 20.2957C38.1004 18.2763 37.8966 17.5542 38.3495 17.5542C38.7912 17.5542 39.0856 17.9829 42.4264 23.4208C47.4544 31.6115 47.7489 31.9387 49.9798 31.9387C50.8065 31.9387 51.1123 31.8822 51.5992 31.6679C52.1994 31.3971 52.7996 30.833 52.7203 30.5961C52.6977 30.5284 52.3919 30.4156 52.0295 30.3366C50.7159 30.0771 50.8858 30.2802 44.8045 21.6721C41.0787 16.3922 40.2973 15.2076 40.2973 14.824C40.2973 14.5532 40.3426 14.5081 40.6031 14.5081C41.0108 14.5081 41.9054 15.4896 44.0571 18.3101C44.5893 18.9983 45.7331 20.4198 46.5938 21.469C49.4815 24.9439 50.2403 25.5305 51.7804 25.429C52.3013 25.3951 52.7317 25.2936 52.9581 25.1695C53.3092 24.9551 54 24.109 54 23.8946C54 23.8382 53.8075 23.748 53.581 23.7141C53.3432 23.669 53.0714 23.6126 52.9695 23.5788C52.8789 23.5562 50.965 21.6608 48.7228 19.3819C41.4185 11.9358 41.3619 11.8681 41.6676 11.4958C41.9168 11.2138 42.5056 11.3943 43.2191 11.981C43.5701 12.2743 44.4308 13.064 45.1103 13.7184C47.9187 16.4147 48.7001 17.0352 49.9345 17.4414C51.067 17.825 52.1315 17.5993 52.8902 16.7983C53.1733 16.505 53.4338 15.9973 53.4338 15.7378C53.4338 15.6701 53.1507 15.6589 52.7203 15.704C52.2334 15.7491 51.9163 15.7265 51.7351 15.6363C51.384 15.4445 50.4781 14.6096 46.8656 11.1348C45.2122 9.54406 43.5135 7.90818 43.0945 7.51332C41.9847 6.47538 41.9847 6.4641 42.5962 5.83231C43.1172 5.31334 43.321 4.85079 43.1964 4.52361C43.1398 4.36566 43.0605 4.37695 42.6528 4.61387C42.3811 4.77181 42.03 4.91848 41.8715 4.96361C41.3845 5.06514 40.3087 4.7154 39.1536 4.07233C37.4096 3.11337 36.2319 2.88773 35.2466 3.32773C33.8311 3.9708 33.7065 5.88872 34.9975 7.18614C35.2013 7.38922 35.7336 7.72767 36.1866 7.93075C36.6395 8.13382 37.0359 8.34818 37.0699 8.41587C37.1605 8.56253 36.9679 8.91227 36.3338 9.71329C35.7109 10.503 35.3146 11.2363 35.3146 11.5974C35.3146 12.1276 35.2013 12.1727 34.2614 12.0148C33.5026 11.8907 33.3328 11.8907 32.6533 12.0825C31.9059 12.2856 31.8832 12.2856 31.7247 12.0825C31.6454 11.9584 31.5775 11.5861 31.5775 11.2025C31.5775 10.8415 31.5322 10.0743 31.4642 9.51021C31.4076 8.93484 31.3057 7.79536 31.2377 6.98307C31.0905 5.21181 30.8414 4.15131 30.2638 2.88773C29.8335 1.95134 29.8335 1.95134 30.0713 1.77083C30.3771 1.51134 30.5583 1.1616 30.5583 0.789299C30.5583 0.552379 30.513 0.507251 30.3658 0.552379C29.256 0.9134 29.3126 0.9134 27.1949 0.484687C24.9753 0.0221292 23.8202 -0.0906899 23.1634 0.0672568Z" fill="#9F0712"></path>
</svg><style>@media (prefers-color-scheme: light) { :root { filter: none; } }
@media (prefers-color-scheme: dark) { :root { filter: none; } }
</style></svg>